<svg id="Layer_1" data-name="Layer 1" xmlns="http://www.w3.org/2000/svg" viewBox="0 0 100 100"><defs><style>.cls-1{fill:#0e79d4;}</style></defs><title>Checklist</title><path class="cls-1" d="M83.8,17.16V93.37a5.57,5.57,0,0,1-5.6,5.55H21.59A5.57,5.57,0,0,1,16,93.37V17.16a5.57,5.57,0,0,1,5.59-5.55H29.9v4.08H21.59a1.49,1.49,0,0,0-1.52,1.47V93.37a1.49,1.49,0,0,0,1.52,1.47H78.2a1.49,1.49,0,0,0,1.53-1.47V17.16a1.49,1.49,0,0,0-1.53-1.47H69.9V11.61h8.3A5.57,5.57,0,0,1,83.8,17.16ZM68,19.28H31.76V9.16a1.67,1.67,0,0,1,1.7-1.63h8a8.76,8.76,0,0,1,16.95,0h7.8a1.67,1.67,0,0,1,1.7,1.63V19.28ZM52.27,8.34a2.37,2.37,0,1,0-2.37,2.29A2.18,2.18,0,0,0,52.27,8.34ZM25.55,31.85a1.78,1.78,0,0,1,0-2.51,1.76,1.76,0,0,1,2.49,0l2.28,2.3,5.81-5.85a1.76,1.76,0,0,1,2.49,0,1.78,1.78,0,0,1,0,2.51l-7,7.11a1.78,1.78,0,0,1-1.25.52,1.76,1.76,0,0,1-1.24-.52Zm18.88,2.3h28.2a1.78,1.78,0,0,0,0-3.55H44.43a1.78,1.78,0,0,0,0,3.55Zm-15.35,19a1.76,1.76,0,0,0,1.24.52,1.78,1.78,0,0,0,1.25-.52l7-7.11a1.78,1.78,0,0,0,0-2.51,1.76,1.76,0,0,0-2.49,0L30.32,49.4,28,47.1a1.76,1.76,0,0,0-2.49,0,1.79,1.79,0,0,0,0,2.52Zm15.35-1.26h28.2a1.78,1.78,0,0,0,0-3.55H44.43a1.78,1.78,0,0,0,0,3.55Zm-15.35,19a1.72,1.72,0,0,0,1.24.52,1.74,1.74,0,0,0,1.25-.52l7-7.11a1.78,1.78,0,0,0,0-2.51,1.76,1.76,0,0,0-2.49,0l-5.81,5.85L28,64.87a1.74,1.74,0,0,0-2.49,0,1.78,1.78,0,0,0,0,2.51Zm15.35-1.26h28.2a1.78,1.78,0,0,0,0-3.55H44.43a1.78,1.78,0,0,0,0,3.55Zm-15.35,19a1.72,1.72,0,0,0,1.24.52,1.74,1.74,0,0,0,1.25-.52l7-7.1a1.79,1.79,0,0,0,0-2.52,1.76,1.76,0,0,0-2.49,0l-5.81,5.85L28,82.63a1.74,1.74,0,0,0-2.49,0,1.78,1.78,0,0,0,0,2.51Zm15.35-1.26h28.2a1.78,1.78,0,0,0,0-3.55H44.43a1.78,1.78,0,0,0,0,3.55Z"/></svg>